<?xml version="1.0" standalone="no"?>
<!DOCTYPE svg PUBLIC "-//W3C//DTD SVG 20010904//EN"
 "http://www.w3.org/TR/2001/REC-SVG-20010904/DTD/svg10.dtd">
<svg version="1.0" xmlns="http://www.w3.org/2000/svg"
 width="972.000000pt" height="915.000000pt" viewBox="0 0 972.000000 915.000000"
 preserveAspectRatio="xMidYMid meet">
<metadata>
Created by potrace 1.16, written by Peter Selinger 2001-2019
</metadata>
<g transform="translate(0.000000,915.000000) scale(0.100000,-0.100000)"
fill="#000000" stroke="none">
<path d="M2711 9125 c-11 -11 -23 -32 -26 -47 -5 -20 -14 -28 -29 -28 -33 0
-98 -42 -123 -79 -25 -38 -28 -58 -13 -112 10 -34 53 -89 70 -89 5 0 -7 15
-25 33 -44 44 -56 111 -28 159 21 36 68 68 116 77 23 5 33 14 41 38 6 18 20
40 31 50 19 18 19 18 1 -4 -10 -13 -19 -36 -20 -52 -1 -27 -6 -31 -45 -41 -68
-17 -97 -36 -115 -75 -21 -43 -14 -102 16 -140 35 -45 87 -33 223 49 l30 18
-25 -21 c-14 -11 -28 -21 -32 -21 -15 0 13 -66 37 -87 35 -30 47 -29 126 12
97 50 119 46 119 -23 0 -38 -7 -46 -80 -82 -101 -51 -206 -112 -470 -278 -267
-167 -446 -261 -555 -290 -48 -14 -70 -24 -69 -34 1 -8 4 -37 7 -64 5 -35 4
-43 -3 -29 l-10 20 3 -20 c3 -27 44 -23 173 20 127 42 236 97 437 219 86 53
228 139 315 192 394 241 665 333 937 321 197 -9 369 -69 546 -192 88 -60 82
-60 141 -7 14 13 29 24 32 23 9 -1 7 9 -1 12 -5 1 -47 32 -95 68 -345 259
-720 307 -1145 147 -83 -31 -91 -33 -81 -15 6 12 8 49 6 86 -9 122 -91 248
-188 290 -70 30 -200 28 -229 -4z"/>
<path d="M2976 9122 c103 -75 157 -176 158 -293 l1 -75 60 23 c33 13 112 38
175 55 158 42 358 50 501 20 167 -35 339 -115 491 -230 40 -31 64 -46 54 -34
-28 32 -181 135 -261 174 -38 20 -102 47 -142 61 -233 84 -527 74 -798 -28
l-62 -24 -5 68 c-7 96 -51 183 -129 255 -33 31 -65 56 -71 56 -6 0 7 -13 28
-28z"/>
<path d="M503 9100 c-206 -37 -394 -198 -473 -405 -28 -74 -38 -215 -20 -298
18 -87 81 -205 147 -274 32 -33 41 -40 20 -16 -54 62 -113 156 -139 222 -19
47 -22 75 -22 181 0 144 15 197 90 311 156 236 434 334 686 239 65 -24 183
-94 183 -108 0 -5 -25 -30 -55 -55 l-55 -46 -64 31 c-261 125 -547 -17 -607
-302 -43 -210 77 -407 330 -542 81 -43 83 -52 3 -12 -132 67 -252 176 -302
273 -14 30 -33 85 -41 124 -54 257 158 516 421 517 65 0 157 -24 214 -55 l43
-25 52 42 c28 23 53 43 55 45 17 12 -171 106 -249 124 -77 18 -203 15 -275 -5
-151 -44 -291 -161 -363 -304 -50 -101 -66 -172 -60 -282 13 -232 166 -429
446 -570 110 -55 160 -72 168 -58 4 6 8 77 10 157 1 80 7 161 13 180 8 26 8
32 -1 23 -6 -6 -16 -61 -22 -123 -6 -61 -13 -108 -16 -105 -3 2 -3 -14 -1 -37
l5 -42 7 40 c9 55 11 10 2 -51 l-7 -49 -13 70 c-8 39 -14 76 -15 83 -1 7 -24
25 -52 39 -205 103 -320 237 -346 405 -13 86 5 183 51 268 102 191 347 263
550 161 l62 -31 31 25 c95 75 101 82 86 100 -21 26 -149 93 -217 115 -75 23
-190 32 -260 20z"/>
<path d="M1433 9060 c-173 -35 -335 -116 -484 -243 -77 -66 -177 -179 -212
-239 -16 -30 -17 -31 0 -8 198 269 423 423 700 479 286 58 602 -8 873 -184 81
-52 223 -166 216 -173 -3 -2 -30 18 -61 46 -119 109 -302 212 -470 266 -340
108 -696 55 -965 -144 -120 -89 -315 -309 -293 -331 5 -4 47 2 96 14 l87 21
66 76 66 75 -69 -71 c-64 -66 -72 -72 -138 -88 -38 -9 -79 -19 -90 -22 -15 -4
-17 -3 -5 4 8 5 49 17 90 27 72 18 77 21 143 91 114 122 241 196 413 239 129
33 256 40 379 21 248 -38 451 -143 651 -338 l101 -98 57 32 c31 18 56 39 56
46 0 12 3 12 17 1 30 -23 -62 83 -114 132 -167 158 -335 262 -530 327 -188 63
-398 78 -580 42z"/>
<path d="M1515 8909 c-98 -13 -208 -45 -290 -86 -79 -39 -178 -104 -170 -111
3 -3 13 2 23 11 31 28 38 19 9 -11 l-27 -28 41 -49 c37 -45 70 -97 69 -110 -1
-33 1 -38 11 -28 14 14 -14 70 -70 140 -22 28 -37 54 -34 57 4 3 11 -3 17 -14
6 -10 32 -50 59 -87 76 -109 112 -248 133 -506 l7 -89 46 7 c91 13 91 13 91
61 0 81 -21 236 -45 329 -29 116 -84 228 -153 312 l-54 65 -39 -38 c-21 -21
-41 -35 -45 -32 -3 4 4 12 16 18 17 9 19 14 10 20 -9 6 -6 11 11 21 13 7 29
14 34 14 35 4 152 -155 194 -264 39 -101 69 -253 78 -385 l6 -105 -28 -11
c-16 -6 -52 -12 -79 -13 l-50 -2 -7 55 c-4 30 -12 106 -19 167 -6 62 -15 125
-20 140 -11 39 -12 6 -1 -53 5 -27 15 -105 21 -174 14 -154 17 -158 101 -142
33 6 67 16 75 23 19 15 18 100 -2 241 -9 62 -17 120 -18 128 -1 9 -5 20 -8 25
-3 6 -11 34 -18 63 -6 28 -16 52 -20 52 -4 0 -10 10 -14 23 -9 36 -84 148
-133 199 l-46 46 59 30 c84 42 196 71 336 86 72 8 100 14 68 14 -30 0 -86 -5
-125 -9z"/>
<path d="M5240 8831 c-204 -41 -391 -128 -785 -366 -263 -158 -506 -286 -550
-289 -13 0 -20 -5 -16 -9 21 -21 249 96 591 303 468 282 695 370 960 370 167
0 347 -48 495 -131 l50 -28 44 29 c37 25 54 30 105 30 34 0 79 -5 101 -11 39
-11 115 -76 115 -99 0 -6 -14 -25 -31 -42 -21 -22 -27 -34 -20 -41 8 -8 11 -7
11 2 0 7 11 26 25 43 14 16 25 34 25 40 0 6 -19 30 -43 53 -48 49 -94 65 -183
65 -49 0 -68 -5 -106 -29 l-46 -29 -43 25 c-80 45 -213 95 -304 114 -113 24
-279 24 -395 0z"/>
<path d="M2675 8793 c-38 -19 -59 -31 -45 -27 14 4 43 16 65 27 29 15 40 16
43 7 10 -28 75 -90 96 -90 12 0 53 16 92 35 38 19 75 35 82 35 7 0 12 -13 12
-34 0 -34 -3 -36 -115 -95 -63 -33 -235 -135 -382 -227 -304 -190 -474 -281
-583 -312 -41 -11 -67 -21 -57 -21 35 -2 173 51 275 105 56 29 221 128 365
218 145 90 317 193 383 228 117 62 119 64 122 101 5 53 -14 55 -100 13 -40
-20 -81 -36 -90 -36 -25 0 -77 48 -85 79 l-8 27 -70 -33z"/>
<path d="M5256 8815 c-202 -39 -394 -127 -791 -365 -294 -176 -423 -245 -554
-295 -138 -52 -155 -53 -84 -5 144 96 174 225 71 300 -49 36 -58 37 -59 8 0
-13 -6 -1 -13 25 -24 90 -92 127 -197 107 -82 -16 -107 -49 -73 -98 9 -13 14
-26 11 -29 -7 -6 -37 51 -37 70 0 47 121 88 197 68 41 -11 103 -68 103 -94 0
-7 15 -18 33 -25 51 -18 98 -73 104 -120 7 -56 -1 -82 -44 -139 -20 -26 -26
-39 -13 -28 12 11 33 39 47 63 21 35 25 52 21 91 -6 56 -28 91 -81 123 -21 13
-43 28 -47 33 -5 6 -25 29 -46 52 -46 55 -95 70 -173 54 -61 -12 -111 -51
-111 -86 0 -12 15 -39 34 -61 l34 -39 -21 -23 c-18 -19 -22 -36 -22 -87 0 -70
19 -102 76 -126 41 -16 34 -38 -21 -65 -98 -51 -300 -18 -495 79 -68 33 -117
65 -256 166 -17 12 -25 10 -74 -23 -30 -20 -55 -40 -55 -45 0 -12 73 -78 145
-131 152 -112 319 -191 480 -227 79 -17 289 -20 345 -4 29 8 24 9 -25 4 -237
-26 -454 23 -662 147 -98 59 -264 185 -270 206 -2 6 19 26 47 44 44 28 53 31
69 19 219 -162 355 -228 525 -258 122 -22 192 -13 259 32 37 25 34 43 -13 67
-53 27 -74 69 -67 134 3 39 10 55 30 70 l26 19 -22 18 c-12 10 -17 18 -12 18
6 0 35 -23 65 -51 30 -28 42 -42 25 -31 -68 45 -95 33 -102 -44 -7 -66 13
-104 67 -128 53 -24 50 -48 -8 -90 -42 -29 -48 -30 -150 -30 -186 1 -373 75
-576 227 l-66 50 -45 -29 c-25 -15 -45 -31 -45 -34 0 -10 125 -109 198 -158
93 -63 225 -126 327 -157 84 -26 102 -28 265 -28 149 0 187 3 253 22 200 55
359 135 752 378 380 233 566 322 770 366 113 24 310 26 410 4 97 -21 245 -75
252 -93 3 -8 -2 -31 -12 -53 -33 -73 -15 -183 34 -210 49 -26 120 8 122 58 0
18 5 10 14 -26 18 -65 41 -101 74 -114 25 -9 23 -11 -34 -29 -107 -33 -337
-88 -458 -109 -396 -67 -726 -11 -975 167 l-65 46 -33 -39 c-18 -21 -33 -42
-34 -46 0 -11 133 -104 210 -146 95 -52 229 -97 350 -118 75 -13 135 -15 280
-11 301 8 484 52 1140 271 612 204 841 257 1107 260 153 1 176 -8 205 -88 17
-44 17 -46 0 -46 -59 0 -139 -104 -129 -167 4 -22 2 -31 -5 -27 -6 4 -8 25 -5
50 6 53 43 105 97 136 44 25 45 30 25 73 -12 25 -14 25 -8 5 11 -43 9 -48 -26
-72 -55 -38 -93 -91 -98 -141 -5 -39 -2 -46 22 -65 15 -12 40 -22 55 -22 27 0
27 -1 17 -39 -14 -52 7 -85 76 -117 63 -29 111 -30 155 -4 35 22 71 87 72 130
0 22 5 25 37 26 42 1 73 31 73 74 0 69 -144 190 -225 190 -38 0 -44 3 -55 30
-7 17 -16 33 -21 35 -4 3 0 -13 9 -35 16 -38 19 -40 63 -40 85 0 219 -111 219
-180 0 -43 -23 -65 -69 -65 -39 0 -41 -1 -41 -30 -1 -47 -35 -112 -69 -129
-43 -23 -90 -20 -150 10 -62 32 -79 59 -64 109 12 39 9 45 -26 45 -14 0 -31 4
-38 8 -7 4 7 8 30 8 51 0 68 5 84 24 23 28 13 1 -17 -47 -16 -26 -30 -57 -30
-69 0 -43 88 -94 162 -94 61 0 116 83 105 161 -5 38 -5 38 18 23 24 -16 74
-10 87 10 20 29 7 68 -36 114 -54 58 -119 92 -174 92 -39 0 -43 3 -57 38 -9
20 -27 48 -40 62 l-24 26 107 -8 c342 -24 613 -85 1017 -228 264 -94 346 -113
459 -108 99 5 138 19 195 72 21 20 29 23 21 10 -34 -57 -126 -93 -235 -93
-100 -1 -192 21 -414 99 -96 33 -176 59 -178 56 -6 -6 374 -134 447 -151 81
-18 212 -19 263 -1 50 18 112 62 133 93 9 15 11 22 3 18 -9 -6 -10 -4 -3 11 5
10 9 53 10 94 1 74 1 75 -34 107 -42 38 -103 59 -192 66 -42 4 -54 3 -35 -3
17 -4 48 -8 70 -9 51 -2 133 -40 165 -77 l25 -29 -30 26 c-17 15 -45 34 -63
44 -35 17 -193 38 -218 28 -30 -11 -12 -23 36 -23 65 0 157 -35 198 -76 80
-80 4 -185 -146 -200 -79 -9 -187 20 -409 107 -444 175 -724 242 -1123 270
-429 30 -688 -16 -1412 -250 -117 -37 -224 -72 -236 -76 -20 -6 -17 -1 13 27
32 29 38 41 38 76 0 29 -9 55 -28 84 -16 24 -21 37 -12 30 30 -25 59 -99 53
-134 -6 -31 -5 -31 5 -8 7 18 7 35 -1 62 -11 40 -57 101 -70 93 -4 -2 -15 4
-24 14 -17 18 -16 20 4 26 11 4 28 18 37 31 15 24 15 27 -4 52 -30 41 -77 63
-142 69 -77 7 -124 -2 -160 -32 l-29 -25 -104 50 c-159 76 -256 101 -418 106
-93 2 -160 -1 -214 -11z"/>
<path d="M5360 8723 c-77 -13 -227 -59 -319 -98 -126 -53 -267 -132 -569 -318
-333 -206 -476 -277 -667 -334 -44 -13 -63 -21 -42 -18 62 10 185 54 302 109
106 50 185 97 595 346 288 174 468 255 662 294 98 20 300 21 393 1 95 -20 226
-66 232 -82 3 -7 -3 -25 -12 -40 -12 -17 -18 -47 -18 -89 -1 -56 3 -68 30
-101 16 -21 42 -42 57 -48 25 -9 34 -7 99 20 12 5 17 3 17 -8 0 -9 11 -29 25
-45 l25 -30 -118 -32 c-108 -30 -167 -52 -97 -36 48 11 220 59 224 63 3 1 -5
13 -17 26 -12 13 -28 41 -36 62 -8 22 -15 34 -15 28 -1 -17 -54 -43 -86 -43
-35 0 -80 46 -94 95 -12 44 -5 110 15 140 28 40 18 52 -70 83 -130 47 -219 62
-363 61 -70 -1 -139 -4 -153 -6z"/>
<path d="M3505 8694 c-245 -44 -425 -128 -885 -412 -349 -215 -499 -291 -660
-333 -47 -12 -59 -17 -32 -14 127 16 346 122 695 339 402 249 570 332 785 388
106 28 131 31 272 31 128 0 169 -3 234 -21 44 -12 81 -20 83 -18 6 5 -105 34
-177 46 -88 14 -218 11 -315 -6z"/>
<path d="M1000 8540 c-145 -20 -297 -72 -414 -140 -81 -47 -189 -133 -212
-167 -18 -29 -15 -34 62 -94 l55 -42 32 30 c75 71 173 137 152 104 -3 -6 33 8
81 30 53 24 90 37 96 31 6 -6 2 -34 -8 -73 -26 -97 -24 -285 5 -364 21 -59 70
-140 78 -131 3 3 -7 20 -21 39 -14 19 -36 60 -47 93 -29 78 -31 267 -5 363 15
55 15 66 3 78 -12 12 -25 9 -92 -22 -92 -41 -113 -40 -29 3 114 57 173 72 384
101 63 9 62 9 -20 4 -213 -12 -407 -92 -560 -230 l-50 -45 -55 42 c-31 24 -58
48 -62 53 -10 17 119 132 204 182 147 86 323 139 493 149 l85 5 -105 -13
c-202 -27 -362 -81 -499 -169 -68 -45 -171 -132 -171 -146 0 -3 25 -26 55 -50
l56 -43 47 44 c147 137 354 222 569 233 63 3 99 9 105 17 5 9 8 8 8 -6 0 -11
3 -17 6 -13 9 9 -26 108 -37 101 -5 -3 -9 -13 -9 -22 0 -15 2 -15 10 -2 8 11
9 7 4 -15 -4 -24 -3 -27 6 -15 10 13 11 12 6 -3 -3 -10 -6 -24 -7 -30 0 -7
-11 17 -24 52 -13 36 -23 69 -22 75 2 14 -78 17 -153 6z"/>
<path d="M1392 8531 c0 -9 5 -40 11 -69 10 -53 11 -54 73 -83 171 -81 242
-257 215 -538 -7 -68 -10 -125 -8 -127 2 -3 29 -2 60 2 39 5 58 12 61 23 15
51 25 254 16 333 -17 151 -53 230 -142 315 -61 57 -111 86 -213 120 -53 18
-60 22 -30 18 63 -9 199 -80 253 -133 26 -26 61 -69 77 -96 33 -56 65 -164 65
-218 0 -21 4 -38 8 -38 10 0 -15 -278 -27 -307 -7 -14 -21 -23 -43 -26 l-33
-4 32 -1 c47 -3 59 24 74 158 16 147 16 178 -5 270 -39 172 -126 285 -276 358
-104 51 -166 67 -168 43z"/>
<path d="M4621 8334 c-23 -26 -41 -50 -41 -54 0 -23 155 -133 265 -187 129
-65 331 -114 454 -112 62 2 61 2 -29 10 -179 14 -346 65 -493 148 -78 45 -187
126 -187 139 0 4 17 27 38 51 l38 44 75 -50 c127 -87 243 -136 399 -169 102
-22 370 -25 495 -6 117 18 286 54 281 59 -3 3 -49 -4 -103 -16 -449 -94 -779
-53 -1054 131 -48 32 -89 58 -92 58 -3 0 -24 -21 -46 -46z"/>
<path d="M753 8250 l-82 -38 -7 -49 c-13 -76 -8 -222 10 -296 56 -238 224
-375 492 -402 l61 -7 7 51 c4 28 9 57 12 65 4 10 -15 17 -77 26 -152 24 -262
99 -315 214 -47 105 -55 271 -19 406 17 63 18 70 8 69 -5 0 -45 -18 -90 -39z"/>
<path d="M225 8050 c6 -10 4 -12 -7 -8 -8 4 -15 1 -15 -5 -1 -7 -17 -48 -37
-92 -58 -133 -71 -193 -71 -345 0 -114 4 -147 23 -210 51 -161 132 -303 288
-502 70 -89 84 -113 84 -143 0 -75 -70 -105 -250 -105 -121 0 -165 -12 -212
-57 -22 -21 -28 -36 -28 -70 0 -38 3 -43 23 -43 13 0 29 6 36 13 8 7 7 -1 -4
-22 -20 -40 -30 -125 -21 -176 8 -43 65 -109 105 -123 35 -12 70 3 88 38 7 14
13 64 13 115 l1 90 17 -50 c22 -65 46 -70 101 -20 58 53 68 94 42 170 -12 33
-21 64 -21 70 0 6 22 18 48 27 56 20 92 55 101 98 6 30 8 28 135 -131 288
-360 400 -579 442 -861 37 -249 -13 -515 -150 -802 -56 -119 -133 -254 -193
-339 l-34 -49 19 -56 c10 -31 23 -57 28 -59 17 -6 225 319 298 467 128 258
178 452 179 690 1 168 -15 266 -69 422 -76 220 -198 412 -496 784 -200 249
-302 393 -357 501 -105 208 -117 403 -39 592 31 73 31 74 12 90 -93 75 -97 80
-76 78 11 0 18 -5 15 -11 -3 -5 -1 -6 5 -2 7 4 17 4 23 0 8 -5 8 -9 -1 -14 -7
-4 -2 -13 17 -25 24 -16 26 -16 14 -2 -20 25 -9 21 51 -19 58 -38 198 -108
238 -118 l25 -6 -25 12 c-14 6 -61 28 -105 49 -72 34 -146 80 -236 148 -18 14
-29 19 -24 11z"/>
<path d="M1580 8029 c-34 -14 -168 -44 -260 -59 -41 -7 -154 -16 -250 -20
l-175 -8 185 3 c195 3 310 18 455 60 44 13 83 20 87 16 5 -4 9 -36 10 -71 l3
-64 -56 -17 c-140 -43 -537 -88 -629 -72 -45 8 -45 9 -62 68 -13 45 -16 50
-12 20 10 -70 24 -89 74 -98 120 -22 632 50 689 96 25 21 0 159 -28 156 -3 0
-17 -5 -31 -10z"/>
<path d="M160 7980 c-60 -117 -90 -243 -90 -375 0 -237 93 -441 342 -752 59
-74 69 -104 47 -144 -17 -32 -56 -41 -210 -48 -139 -6 -148 -7 -194 -36 -27
-17 -50 -37 -53 -45 -3 -8 5 -5 18 9 44 46 96 61 212 61 137 0 201 14 228 47
36 46 27 74 -57 180 -249 319 -332 517 -320 766 5 118 34 232 83 330 14 26 22
47 19 47 -2 0 -14 -18 -25 -40z"/>
<path d="M1530 7995 c-41 -12 -118 -30 -170 -39 -106 -19 -413 -40 -447 -31
-26 6 -27 4 -12 -66 l11 -52 177 6 c180 6 299 21 455 58 l88 22 -6 45 c-3 25
-6 53 -6 63 0 22 5 23 -90 -6z"/>
<path d="M1357 7801 c-20 -5 -41 -11 -45 -16 -4 -4 2 -5 13 -2 11 3 40 8 65
11 60 8 21 -9 -42 -18 l-48 -7 0 -147 c0 -411 -91 -654 -341 -904 l-96 -97 38
-54 c25 -35 33 -54 24 -54 -8 0 -11 5 -8 10 3 6 1 7 -5 3 -8 -5 -10 -1 -6 11
5 15 4 16 -5 3 -9 -13 -11 -13 -12 0 -1 8 -1 20 0 27 1 6 -3 14 -9 18 -5 3
-10 1 -10 -5 0 -6 -4 -9 -9 -5 -23 13 -2 59 45 101 27 24 44 43 38 44 -6 0
-34 -24 -61 -53 l-51 -53 -156 195 c-190 236 -273 357 -331 476 -64 131 -79
198 -79 340 0 91 -2 110 -9 80 -11 -53 -2 -195 19 -270 41 -154 146 -322 385
-620 278 -347 386 -502 470 -679 102 -215 132 -347 133 -581 1 -132 3 -156 9
-110 11 82 2 263 -18 360 -38 183 -129 387 -259 583 -76 114 -84 128 -67 117
13 -7 126 91 215 185 218 232 307 497 307 919 0 90 -3 166 -6 169 -3 3 -5 -72
-5 -166 0 -464 -90 -706 -361 -974 -65 -65 -124 -118 -131 -118 -7 0 5 14 27
32 68 53 199 190 248 259 150 211 204 427 208 824 1 190 5 181 -74 166z"/>
<path d="M1697 7689 c12 -4 79 -8 150 -8 82 0 150 -6 188 -16 150 -39 262
-125 319 -244 28 -59 31 -76 31 -156 0 -78 -4 -97 -28 -147 -34 -70 -102 -140
-171 -176 -45 -24 -62 -27 -146 -27 -84 0 -102 3 -153 29 -83 40 -160 119
-202 207 -19 41 -35 68 -35 61 0 -7 14 -40 31 -74 40 -79 127 -166 204 -204
54 -26 70 -29 155 -29 85 0 101 3 149 28 72 38 141 109 177 182 26 54 29 70
28 155 0 84 -3 102 -29 155 -56 114 -184 214 -320 249 -63 16 -388 30 -348 15z"/>
<path d="M1610 7644 c-63 -14 -123 -26 -132 -27 -12 -1 -14 -6 -7 -18 5 -10 9
-40 9 -68 0 -28 4 -51 10 -51 5 0 47 9 94 20 180 42 359 44 476 5 79 -26 144
-94 161 -168 22 -103 -21 -211 -103 -253 -43 -22 -137 -20 -186 5 -98 50 -155
162 -156 303 -1 87 0 86 -88 72 l-38 -7 0 -86 c0 -144 42 -252 132 -342 99
-99 249 -135 370 -89 76 28 159 104 195 178 24 50 28 69 28 147 0 117 -31 189
-114 268 -106 101 -184 128 -386 133 -133 3 -163 1 -265 -22z"/>
<path d="M540 6693 c0 -23 -59 -80 -102 -98 -24 -11 -45 -20 -47 -21 -1 -2 6
-30 18 -63 12 -34 21 -69 21 -78 0 -29 -49 -101 -84 -122 -43 -27 -61 -26 -80
1 -15 22 -16 20 -16 -30 0 -104 -53 -162 -117 -129 -43 23 -91 75 -104 115
-11 35 -8 143 6 175 6 13 2 17 -16 16 -17 -1 -19 -3 -7 -6 14 -3 15 -9 8 -29
-6 -14 -10 -53 -10 -88 0 -79 36 -141 104 -181 42 -25 49 -26 77 -14 42 17 69
64 69 118 0 35 3 42 12 33 20 -20 48 -14 89 19 39 31 79 93 79 124 0 8 -9 41
-20 72 -11 31 -19 57 -17 59 1 1 20 11 43 22 22 12 56 38 73 58 18 20 36 33
39 27 4 -5 44 -55 90 -111 45 -55 82 -104 82 -107 0 -4 -12 3 -26 14 -15 12
-32 17 -39 13 -6 -4 -42 -41 -79 -82 -305 -340 -389 -760 -256 -1290 16 -63
34 -126 40 -140 l11 -25 -6 25 c-3 14 -19 79 -35 145 -43 172 -60 301 -60 451
0 265 62 478 200 686 52 76 169 216 184 217 4 1 -17 -27 -49 -60 -166 -180
-282 -420 -314 -653 -24 -169 -9 -397 40 -606 51 -224 122 -419 329 -915 226
-541 266 -678 264 -910 -1 -139 -26 -327 -44 -333 -5 -2 -7 -9 -4 -17 13 -33
-83 -273 -226 -565 -215 -441 -252 -562 -253 -830 -1 -308 62 -540 274 -997
104 -225 129 -295 129 -360 0 -96 -68 -169 -148 -160 -71 8 -112 63 -112 152
0 45 -12 60 -24 29 -18 -47 7 -155 47 -202 l31 -37 -32 29 c-35 33 -52 74 -62
156 l-7 55 -2 -46 c-1 -61 22 -126 60 -165 30 -31 33 -31 122 -32 90 0 93 1
125 32 60 56 77 100 77 201 0 109 -14 155 -130 415 -139 312 -190 466 -220
665 -24 158 -18 412 11 508 4 15 3 19 -4 12 -32 -32 -42 -350 -17 -520 30
-200 81 -354 221 -667 126 -282 156 -409 120 -511 -16 -45 -59 -103 -87 -118
-11 -6 -2 8 20 30 77 77 90 198 37 354 -14 40 -62 157 -107 258 -101 229 -159
389 -194 544 -37 161 -47 424 -20 570 l17 95 30 -41 c16 -22 49 -53 73 -67 25
-15 45 -34 45 -43 0 -9 -11 -47 -25 -83 -32 -86 -32 -129 0 -161 13 -14 31
-25 40 -25 8 0 18 0 22 0 4 0 7 17 7 37 1 20 7 38 14 40 16 6 15 -25 -3 -77
-17 -49 -20 -113 -5 -141 6 -10 25 -26 42 -35 96 -50 231 79 232 220 0 56 0
58 9 25 26 -108 -92 -264 -200 -264 -34 0 -49 6 -74 31 -25 26 -31 39 -31 77
0 25 3 50 6 55 3 6 -8 15 -24 22 -41 17 -70 56 -70 94 0 17 12 67 27 110 27
77 27 79 8 90 -10 6 -39 29 -64 50 l-46 39 45 -45 c25 -25 52 -47 60 -50 12
-4 10 -18 -13 -84 -15 -43 -27 -93 -27 -111 0 -34 38 -88 70 -98 16 -5 19 -15
18 -61 -1 -51 1 -58 35 -92 50 -49 104 -52 169 -7 50 35 104 111 116 163 37
155 34 204 -14 262 -38 44 -53 50 -152 55 -154 7 -253 64 -282 162 -11 35 -9
46 24 127 19 49 87 186 150 305 212 399 280 620 293 957 11 271 -41 474 -242
954 -216 517 -265 645 -315 834 -26 98 -48 218 -64 341 l-5 40 16 -30 c25 -49
93 -112 142 -133 209 -89 464 51 465 255 0 57 -25 96 -68 107 -12 3 -37 28
-55 56 -45 69 -93 100 -154 100 -26 0 -61 -7 -76 -15 -38 -19 -81 -71 -81 -98
0 -26 45 -97 61 -97 6 0 -3 16 -20 35 -36 42 -39 72 -10 109 46 58 141 75 205
36 37 -23 94 -103 94 -132 0 -11 5 -16 10 -13 6 4 10 -7 10 -27 -1 -29 -4 -25
-31 39 -41 97 -91 143 -154 143 -56 0 -107 -20 -129 -51 -28 -41 -20 -69 35
-122 28 -26 41 -43 29 -37 -34 18 -69 4 -86 -35 -24 -59 -18 -84 31 -132 55
-52 58 -73 11 -73 -84 0 -145 40 -185 123 -46 95 -57 200 -32 313 44 201 138
380 281 537 l50 55 -45 38 c-25 20 -43 39 -40 42 3 3 13 -2 23 -11 10 -10 22
-14 27 -10 4 5 5 2 0 -6 -6 -10 -4 -12 5 -6 9 6 11 4 5 -5 -6 -9 -4 -11 5 -5
8 5 11 4 7 -2 -4 -6 0 -16 9 -23 13 -12 11 -18 -19 -49 -55 -57 -145 -178
-182 -245 -43 -77 -98 -214 -92 -229 2 -7 10 7 16 30 32 114 128 280 236 407
l59 68 23 -28 c33 -40 114 -175 156 -259 45 -90 91 -223 113 -322 23 -106 23
-348 0 -458 -48 -229 -159 -484 -311 -712 l-63 -93 26 -65 c14 -36 30 -62 35
-58 6 3 7 1 3 -5 -3 -6 22 -80 57 -164 212 -508 257 -739 212 -1082 -13 -96
-53 -277 -80 -361 -5 -16 -4 -17 4 -5 19 30 71 247 86 363 46 357 -4 599 -237
1147 -26 60 -36 96 -29 98 32 11 225 309 311 481 91 182 171 420 169 501 0 14
-9 -13 -18 -60 -54 -251 -189 -534 -390 -817 -36 -51 -68 -93 -72 -93 -12 0
-26 25 -43 76 l-17 52 71 108 c138 211 246 460 292 674 27 125 29 358 4 473
-53 243 -160 448 -383 734 -117 149 -162 201 -163 186z"/>
<path d="M538 4289 c-49 -84 -151 -295 -183 -379 -50 -128 -67 -225 -68 -390
-2 -188 19 -278 95 -389 29 -43 30 -48 19 -89 -28 -105 -6 -179 68 -229 28
-19 48 -23 108 -23 72 0 76 1 109 34 19 19 34 41 34 49 0 8 13 17 29 20 15 3
49 22 76 42 26 20 44 31 39 24 -4 -7 -8 -24 -9 -38 -5 -54 -82 -237 -220 -521
-211 -433 -248 -556 -249 -825 -1 -302 64 -540 265 -973 144 -309 158 -363
123 -452 -24 -61 -87 -86 -147 -59 -31 14 -47 42 -57 98 -7 40 -8 42 -9 13 -5
-144 173 -182 224 -48 35 91 26 120 -170 551 -250 553 -286 959 -119 1377 20
51 85 190 144 308 147 294 224 481 236 573 2 17 7 49 10 69 8 49 0 80 -32 117
-48 58 -105 40 -180 -58 -21 -28 -40 -48 -43 -46 -2 3 8 18 23 34 21 22 26 35
21 51 -8 26 -61 60 -95 60 -28 0 -124 -42 -134 -59 -13 -20 -24 -12 -41 32
-27 66 -35 96 -45 176 -12 89 2 309 25 395 33 126 104 274 203 424 l34 53 -16
43 c-9 23 -22 51 -30 61 -12 16 -15 14 -38 -26z"/>
<path d="M590 4317 c0 -4 9 -25 20 -47 11 -22 20 -45 20 -51 0 -7 -22 -46 -49
-88 -26 -42 -68 -114 -91 -161 -96 -191 -121 -296 -121 -514 0 -151 7 -196 46
-290 l16 -37 32 24 c75 57 157 59 202 6 l25 -31 35 31 c50 43 93 42 133 -3 17
-19 34 -45 38 -58 7 -20 9 -17 15 22 4 25 10 104 13 175 l5 130 -9 -120 c-5
-66 -12 -135 -15 -154 l-6 -33 -17 23 c-46 67 -101 77 -155 29 l-34 -29 -28
29 c-49 51 -128 49 -201 -6 l-32 -23 -27 83 c-27 82 -27 88 -22 267 3 150 8
198 26 259 28 94 112 272 180 377 28 44 51 86 51 94 -1 15 -49 109 -50 96z"/>
<path d="M906 2657 c-20 -50 -88 -189 -151 -307 -62 -118 -130 -255 -150 -304
-35 -84 -36 -92 -25 -130 27 -91 130 -147 275 -151 39 -2 76 -3 82 -4 26 -2
92 -74 109 -116 13 -36 15 -52 6 -87 -6 -23 -9 -44 -7 -46 2 -2 9 15 15 39 22
80 -24 170 -105 209 -31 15 -54 19 -77 15 -47 -9 -175 20 -221 51 -25 16 -46
42 -59 72 -20 45 -20 48 -4 95 27 76 71 168 177 367 92 173 185 377 177 386
-3 2 -21 -38 -42 -89z"/>
</g>
</svg>
