<?xml version="1.0" standalone="no"?>
<svg version="1.0" xmlns="http://www.w3.org/2000/svg"
 width="48.000000pt" height="67.000000pt" viewBox="0 0 48.000000 67.000000"
 preserveAspectRatio="xMidYMid meet">
<g transform="translate(0.000000,67.000000) scale(0.071642,-0.100000)"
fill="#000000" stroke="none">
<path d="M335 645 c-4 -11 -14 -35 -21 -54 -10 -23 -14 -84 -14 -203 0 -113
-3 -167 -10 -163 -6 4 -24 3 -41 0 -25 -6 -30 -11 -27 -33 4 -32 36 -42 54
-17 23 31 36 6 33 -59 -3 -46 1 -67 14 -86 l18 -25 19 22 c15 19 17 34 13 84
-7 68 7 91 39 62 20 -18 45 -11 55 13 9 23 -25 47 -59 40 l-27 -5 -3 187 c-2
147 -7 195 -19 222 -15 31 -17 33 -24 15z"/>
</g>
</svg>
